<?xml version="1.0" standalone="no"?>
<!DOCTYPE svg PUBLIC "-//W3C//DTD SVG 20010904//EN"
 "http://www.w3.org/TR/2001/REC-SVG-20010904/DTD/svg10.dtd">
<svg version="1.0" xmlns="http://www.w3.org/2000/svg"
 width="512.000000pt" height="512.000000pt" viewBox="0 0 512.000000 512.000000"
 preserveAspectRatio="xMidYMid meet">
<metadata>
Created by potrace 1.14, written by Peter Selinger 2001-2017
</metadata>
<g transform="translate(0.000000,512.000000) scale(0.100000,-0.100000)"
fill="#000000" stroke="none">
<path d="M0 2560 l0 -2560 2560 0 2560 0 0 2560 0 2560 -2560 0 -2560 0 0
-2560z m2811 1498 c437 -118 714 -465 736 -924 26 -533 -324 -968 -834 -1037
l-91 -12 574 -478 c549 -458 574 -480 574 -512 0 -24 -7 -39 -26 -54 -26 -21
-36 -21 -500 -21 -261 0 -483 4 -496 9 -13 5 -255 206 -538 446 -647 549 -639
541 -646 570 -5 20 29 81 167 307 96 156 182 291 192 300 15 16 43 18 280 18
144 0 291 5 326 10 154 26 239 112 272 278 43 224 -75 400 -295 441 -37 7
-220 11 -483 11 l-424 0 -24 25 c-14 13 -25 33 -25 43 0 21 351 590 373 604 6
5 188 7 402 5 384 -3 392 -4 486 -29z"/>
</g>
</svg>
